<?xml version="1.0" encoding="UTF-8"?>
<svg width="159px" height="66px" viewBox="0 0 159 66" version="1.1" xmlns="http://www.w3.org/2000/svg" xmlns:xlink="http://www.w3.org/1999/xlink">
    <!-- Generator: Sketch 39.1 (31720) - http://www.bohemiancoding.com/sketch -->
    <title>sml</title>
    <desc>Created with Sketch.</desc>
    <defs></defs>
    <g id="Page-1" stroke="none" stroke-width="1" fill="none" fill-rule="evenodd">
        <path d="M21.627154,65.5791123 C17.5575079,65.5791123 13.5460598,65.1430853 9.5926893,64.2710183 C5.63931879,63.3989513 2.44178767,62.2652811 0,60.8699739 L5.40678851,47.8762402 C7.61602497,49.2134096 10.2321868,50.2598744 13.2553525,51.0156658 C16.2785182,51.7714572 19.2144331,52.1493473 22.0631854,52.1493473 C24.3305596,52.1493473 25.914791,51.9604022 26.8159269,51.5825065 C27.7170628,51.2046108 28.167624,50.6377758 28.167624,49.8819843 C28.167624,49.1261929 27.600789,48.6029605 26.4671018,48.3122715 C25.3334147,48.0215825 23.4875672,47.7308979 20.9295039,47.4402089 C17.0342712,46.9751065 13.7204662,46.3792029 10.9879896,45.6524804 C8.25551288,44.9257579 5.85736454,43.5159374 3.79347258,41.4229765 C1.72958063,39.3300156 0.697650131,36.3359638 0.697650131,32.4407311 C0.697650131,29.3594276 1.627841,26.5979234 3.48825065,24.1561358 C5.3486603,21.7143481 8.12469869,19.766761 11.8164491,18.3133159 C15.5081995,16.8598709 19.9411404,16.1331593 25.1154047,16.1331593 C28.7199484,16.1331593 32.2517669,16.4674466 35.7109661,17.1360313 C39.1701653,17.804616 42.1206144,18.7784096 44.5624021,20.0574413 L39.1556136,33.0511749 C34.9696919,30.7256629 30.3768744,29.5629243 25.3770235,29.5629243 C21.0748262,29.5629243 18.9237598,30.3187044 18.9237598,31.8302872 C18.9237598,32.5860786 19.5051291,33.1238452 20.6678851,33.4436031 C21.8306411,33.763361 23.6619544,34.0685799 26.1618799,34.3592689 C30.0571126,34.8243713 33.3563833,35.4348091 36.0597911,36.1906005 C38.7631989,36.9463919 41.146813,38.3707467 43.210705,40.4637076 C45.2745969,42.5566684 46.3065274,45.5507203 46.3065274,49.445953 C46.3065274,52.4109809 45.3763365,55.1143481 43.5159269,57.5561358 C41.6555172,59.9979234 38.8649446,61.9455106 35.1441253,63.3989556 C31.423306,64.8524007 26.917694,65.5791123 21.627154,65.5791123 L21.627154,65.5791123 Z M114.37389,16.1331593 C120.129533,16.1331593 124.736884,17.9063356 128.196084,21.4527415 C131.655283,24.9991474 133.384856,30.3477449 133.384856,37.4986945 L133.384856,64.7070496 L113.67624,64.7070496 L113.67624,40.8997389 C113.67624,35.4347856 111.903064,32.7023499 108.356658,32.7023499 C106.496248,32.7023499 104.999222,33.399993 103.865535,34.7953003 C102.731848,36.1906075 102.165013,38.3998108 102.165013,41.4229765 L102.165013,64.7070496 L82.4563969,64.7070496 L82.4563969,40.8997389 C82.4563969,35.4347856 80.6832205,32.7023499 77.1368146,32.7023499 C75.276405,32.7023499 73.779379,33.399993 72.6456919,34.7953003 C71.5120048,36.1906075 70.9451697,38.3998108 70.9451697,41.4229765 L70.9451697,64.7070496 L51.2365535,64.7070496 L51.2365535,17.0052219 L69.9859008,17.0052219 L69.9859008,21.4527415 C73.5323067,17.9063356 78.0379187,16.1331593 83.5028721,16.1331593 C86.7004511,16.1331593 89.5782292,16.7290628 92.1362924,17.9208877 C94.6943557,19.1127127 96.7872852,20.9294917 98.4151436,23.3712794 C100.333691,21.0457673 102.659168,19.2580567 105.391645,18.008094 C108.124122,16.7581313 111.118173,16.1331593 114.37389,16.1331593 L114.37389,16.1331593 Z M138.93107,0 L158.639687,0 L158.639687,64.7070496 L138.93107,64.7070496 L138.93107,0 Z" id="sml" fill="#4A4A4A"></path>
    </g>
</svg>