<?xml version="1.0" encoding="UTF-8"?>
<svg width="103px" height="65px" viewBox="0 0 103 65" version="1.1" xmlns="http://www.w3.org/2000/svg" xmlns:xlink="http://www.w3.org/1999/xlink">
    <!-- Generator: Sketch 39.1 (31720) - http://www.bohemiancoding.com/sketch -->
    <title>g8</title>
    <desc>Created with Sketch.</desc>
    <defs></defs>
    <g id="Page-1" stroke="none" stroke-width="1" fill="none" fill-rule="evenodd">
        <g id="Erlang" fill="#ECF8FE">
            <g id="g8">
                <path d="M3.48683306,30.99807 C3.47582088,18.7254385 7.34405132,8.17654986 13.994067,0.149552362 L0.00590770276,0.153568559 L0.00590770276,64.9264606 L16.0984668,64.9264606 C8.1382716,56.5061451 3.4750151,44.8752972 3.48683306,30.99807 Z" id="path10"></path>
                <path d="M89.7213544,64.9304746 C93.1547386,61.2647789 96.2311664,56.9476563 99.0188593,52.010438 L83.5480855,44.2993775 C78.1147846,53.1047113 70.1690891,61.2096211 59.1816171,61.2637056 C43.1905873,61.2096211 36.9077331,47.5787197 36.9423814,30.0339199 L96.6982438,30.0339199 C96.7780158,28.053142 96.7780158,27.1320989 96.6982438,26.1786583 C97.0882366,15.7406163 94.3131665,6.96687761 89.2650221,0.134290893 L89.2389542,0.153836273 L102.693157,0.153836273 L102.693157,64.9267268 L89.6920651,64.9267268 L89.7213544,64.9305296 L89.7213544,64.9305296 L89.7213544,64.9304746 Z" id="path12"></path>
                <path d="M52.2200378,1.69578021 C59.63661,1.711845 64.9952465,7.05389493 65.1768105,14.9973562 L37.9095734,14.9973562 C38.5711098,7.05389493 44.853694,1.71184492 52.2200378,1.69578021 Z" id="path14"></path>
            </g>
        </g>
    </g>
</svg>